<svg xmlns="http://www.w3.org/2000/svg" xmlns:xlink="http://www.w3.org/1999/xlink" width="34" height="1484"><svg width="32" height="32"><path fill="#444" d="M30.063 6.25v.063c-.813.563-5.375 3.563-6.25 4.125-.125 0-.313 0-.625-.188-.375-.188-1.375-.75-2.813-1.563l-1.125-.625-1 .75c-.813.5-2.438 1.813-5 4.375s-3.875 4.25-4.438 5l-.688 1.063.625 1.063c.563 1.063 1.313 2.375 1.563 2.813.188.313.188.563.188.625-.5.813-3.625 5.438-4.188 6.25-.063.063-.25.063-.438-.125-1.75-1.25-3.625-3.063-3.875-3.75.188-3.75 3.5-9.063 9.313-14.875s11.063-9.125 14.813-9.25c.688.25 2.5 2.063 3.813 3.813.063.125.125.25.125.438zm1.937 0c0-.563-.188-1.125-.5-1.563-.063-.063-3.375-4.813-5.313-4.75-5.5.188-11.875 5.5-16.313 9.938C5.499 14.25.186 20.688-.001 26.125v.063c0 1.938 4.625 5.313 4.688 5.313 1.25.875 2.688.563 3.25-.25.313-.5 3.875-5.813 4.313-6.5.125-.25.25-.625.25-1 0-.5-.188-1.063-.438-1.563s-1.188-2.063-1.625-2.875c.5-.625 1.688-2.25 4.188-4.688 2.5-2.5 4.063-3.75 4.75-4.188.75.438 2.313 1.313 2.875 1.563.938.5 1.938.563 2.563.188s5.938-3.938 6.438-4.313c.5-.375.75-.938.75-1.625z"/></svg><svg width="32" height="32" y="132"><path fill="#444" d="M2.016 4.992h20v16h-9.664l-4.736 3.776-1.6 1.312v-5.088h-4v-16zM4 7.008v12h4v2.912l3.392-2.688.256-.224H20v-12H4zm20 1.984h6.016v16h-4v5.088l-6.368-5.088h-9.312l2.496-1.984h7.52L24 25.92v-2.912h4v-12h-4V8.992z"/></svg><svg width="12" height="32" y="264"><path fill="#fff" d="M8 12h4l-.5 4H8v12H2.812V16H-.001v-4h2.813V9.312c0-3.375 1.438-5.313 5.688-5.313H12v4H9.875C8.187 7.999 8 8.562 8 9.624V12z"/></svg><svg width="20" height="32" y="396"><path fill="#444" d="M18.563 14.875c.875 1.5 1.438 3.25 1.438 5.125 0 2.063-.625 3.938-1.625 5.5-1.813 2.688-4.875 4.5-8.375 4.5-1.063 0-2-.063-2.875-.438s-1.563-.813-2.063-1.563c-.688-1-1.063-1.75-1.313-3.25-.375 1.563.125 3 .563 3.75C1.625 26.874 0 24.061 0 20.686v-.25c.313-4.875 4.063-6.813 5.625-9.438.5-.875.813-1.875.625-3 .688.563.938 1.563.938 2.438 0 1-.188 1.813-.188 1.813.25-.5.438-1.125.563-1.938.375-2.188.125-5.313-2.313-8.25l-.063-.063s.438 0 1.125.188c5.938 1 10.563 5.688 11.5 11.625.125.75.188 1.438.188 2.188 0 1-.125 2-.313 2.938.625-1.438.813-2.688.875-3.438v-.625z"/></svg><svg width="18" height="32" y="528"><path fill="#fff" d="M13.125 17.25c1.375 1.125 2.813 2.25 2.813 4.563 0 3.063-3 6.188-8.75 6.188-5 0-7.188-2.438-7.188-4.813 0-.625.188-2.625 2.625-4.063 1.688-1 3.813-1.25 5.313-1.375-.25-.438-.5-1-.5-1.688 0-.25 0-.438.063-.625h-.25c-1.188 0-2.875-.25-4.188-1.625-.938-.938-1.5-2.25-1.5-3.563 0-1.625.813-3.313 2.188-4.438 2-1.563 4.375-1.813 5.938-1.813h8.313l-3.75 2.063h-.813c.688.813 1.438 1.938 1.438 3.625 0 2.5-1.563 3.688-2.813 4.625v.063c-.375.375-.688.625-.688 1.063 0 .375.25.625.625.938l1.124.875zm-7.812-8.5c0 .813.25 2.063.875 3.188.438.75 1.25 1.688 2.563 1.688.625 0 1.313-.25 1.75-.688.625-.625.625-1.563.625-1.875 0-1.125-.375-2.375-.938-3.375C9.75 6.875 8.938 6 7.688 6c-.688 0-1.375.313-1.813.813-.375.438-.563 1.125-.563 1.938l.001-.001zM12.875 23c0-1.25-.813-1.938-3.125-3.5-.188 0-.25-.063-.5-.063-.375 0-2 .125-3.188.5-1 .375-2.313 1-2.313 2.625 0 1.938 2 3.188 5 3.188 2.563 0 4.125-1.063 4.125-2.75h.001z"/></svg><svg width="34" height="32" y="660"><path fill="#444" d="M33.127 13.042L18.476.554C18.073.21 17.545 0 16.969 0s-1.104.21-1.51.557l.003-.003L.811 13.042c-.505.433-.823 1.072-.823 1.785 0 1.253.982 2.277 2.218 2.343h.006v12.483c0 1.29 1.041 2.337 2.329 2.346h24.855c1.289-.009 2.33-1.056 2.33-2.346V17.17c1.242-.067 2.224-1.091 2.224-2.344 0-.713-.318-1.352-.82-1.782l-.003-.003zM16.195 29.659h-1.553v-7.024h4.66v7.024h-3.106zm13.204-14.83v14.829h-7.767v-7.024-.007c0-1.288-1.043-2.332-2.33-2.334h-4.66c-1.288.002-2.331 1.047-2.331 2.334v7.031H4.542V14.829H2.318L16.969 2.341 31.62 14.829h-2.224z"/></svg><svg width="28" height="32" y="792"><path fill="#444" d="M25.891 20.496l-3.482-3.446c-.224-.224-.534-.363-.877-.363s-.652.139-.877.363c-.224.22-.363.527-.363.866s.139.645.363.865l3.482 3.454c.782.771 1.267 1.843 1.267 3.028s-.485 2.256-1.267 3.027c-.786.776-1.867 1.255-3.059 1.255s-2.273-.479-3.06-1.256l-6.564-6.498c-.781-.772-1.265-1.843-1.265-3.028s.484-2.256 1.264-3.027c.63-.626 1.452-1.059 2.37-1.203l.024-.003c.597-.088 1.05-.597 1.05-1.211 0-.065-.005-.129-.015-.191l.001.007c-.098-.597-.611-1.048-1.228-1.048-.065 0-.13.005-.192.015l.007-.001c-1.483.231-2.778.912-3.771 1.896l.001-.001c-1.229 1.216-1.991 2.903-1.991 4.767s.761 3.551 1.99 4.767l.001.001 6.564 6.49c1.236 1.222 2.936 1.977 4.813 1.977s3.577-.755 4.813-1.978l-.001.001c1.231-1.213 1.994-2.899 1.994-4.763s-.763-3.55-1.993-4.762l-.001-.001zM3.747 9.764c-.783-.771-1.268-1.843-1.268-3.028s.485-2.256 1.267-3.027l.001-.001c.786-.776 1.867-1.255 3.059-1.255s2.273.479 3.06 1.256l6.564 6.49c.779.774 1.261 1.847 1.261 3.032 0 2.142-1.576 3.917-3.632 4.227l-.024.003c-.588.099-1.031.605-1.031 1.214 0 .675.544 1.223 1.217 1.231h.001c.069-.002.134-.008.199-.017l-.008.001c1.483-.232 2.777-.912 3.771-1.896l-.001.001c1.229-1.215 1.99-2.9 1.99-4.763s-.761-3.549-1.989-4.762l-.001-.001-6.564-6.498C10.383.749 8.683-.006 6.806-.006S3.229.749 1.993 1.972l.001-.001C.763 3.186 0 4.873 0 6.738s.763 3.552 1.993 4.766l.001.001 3.481 3.446c.226.221.535.357.877.357s.651-.136.877-.357c.225-.222.364-.529.364-.87s-.139-.648-.364-.87z"/></svg><svg width="26" height="32" y="924"><path fill="#444" d="M13.091 0C5.937.185.186 5.937 0 13.073v.017c.133 2.233.75 4.295 1.748 6.119l-.038-.076q.046.087.1.175c7.916 12.691 10.274 12.691 11.281 12.691 1.57 0 3.273-1.105 7.304-6.742 2.103-2.938 3.902-5.825 3.977-5.949.036-.058.069-.116.1-.175.96-1.749 1.577-3.811 1.708-6.004l.002-.04C25.996 5.935 20.245.184 13.109-.002h-.017zm9.429 18.16s-7.257 11.658-9.429 11.658c-2.154 0-9.429-11.658-9.429-11.658-.813-1.465-1.345-3.192-1.478-5.029l-.002-.04c0-6.025 4.884-10.909 10.909-10.909S24 7.066 24 13.091c-.135 1.877-.667 3.604-1.512 5.133l.032-.064zM13.091 6.545c-3.213 0-5.818 2.605-5.818 5.818s2.605 5.818 5.818 5.818c3.213 0 5.818-2.605 5.818-5.818-.004-3.212-2.607-5.814-5.818-5.818zm0 9.455c-2.008 0-3.636-1.628-3.636-3.636s1.628-3.636 3.636-3.636 3.636 1.628 3.636 3.636S15.099 16 13.091 16z"/></svg><svg width="31" height="32" y="1056"><path fill="#444" d="M29.852 3.133L22.41.156C22.164.057 21.879 0 21.581 0c-.412.001-.797.114-1.126.311l.01-.006C20.146.114 19.76.001 19.349 0c-.298 0-.583.057-.844.162l.015-.005-7.442 2.977c-.1.045-.196.089-.287.141a3.1848 3.1848 0 0 0-.287-.141L3.062.157C2.816.058 2.531.001 2.233.001h-.01c-.464 0-.895.145-1.249.392L.981.388C.386.791 0 1.464 0 2.228v24.564c0 .935.574 1.736 1.389 2.071l.015.005 7.442 2.977c.246.099.531.156.829.156.412-.001.797-.114 1.126-.311l-.01.006c.319.191.705.304 1.116.305.298 0 .583-.057.844-.162l-.015.005 7.442-2.977c.1-.045.196-.089.287-.141.092.052.187.097.287.141l7.442 2.977c.246.099.531.156.829.156h.01c.464 0 .895-.145 1.249-.392l-.007.005c.595-.403.981-1.076.981-1.84V5.209c0-.935-.574-1.736-1.389-2.071l-.015-.005zM2.233 26.791V2.233L9.675 5.21v24.558zm9.674 2.976V5.209l7.442-2.977V26.79zm17.116 0l-7.442-2.977V2.232l7.442 2.977v24.558z"/></svg><svg width="32" height="32" y="1188"><path fill="#444" d="M16 0C7.163 0 0 7.163 0 16s7.163 16 16 16 16-7.163 16-16C31.99 7.168 24.832.01 16.001 0H16zm0 29.818C8.368 29.818 2.182 23.631 2.182 16S8.369 2.182 16 2.182c7.632 0 13.818 6.187 13.818 13.818 0 7.632-6.187 13.818-13.818 13.818zm7.273-14.545h-6.545v-8c0-.603-.488-1.091-1.091-1.091s-1.091.488-1.091 1.091v10.182h8.727c.602 0 1.091-.488 1.091-1.091s-.488-1.091-1.091-1.091z"/></svg><svg width="30" height="32" y="1320"><path fill="#fff" d="M29.5 6.875c-.813 1.25-1.813 2.25-3 3.125v.75c0 8-6.125 17.25-17.25 17.25-3.438 0-6.563-1-9.25-2.75.5.063.938.125 1.438.125 2.813 0 5.438-1 7.5-2.625-2.625-.063-4.875-1.813-5.625-4.188.375.063.75.125 1.125.125.563 0 1.125-.125 1.625-.25-2.75-.563-4.875-3-4.875-5.938v-.063c.813.438 1.75.75 2.75.75-1.625-1.063-2.688-2.938-2.688-5.063 0-1.125.313-2.125.813-3 3 3.688 7.438 6.063 12.438 6.313-.125-.438-.125-.875-.125-1.375 0-3.375 2.688-6.063 6.063-6.063 1.75 0 3.25.75 4.375 1.938 1.375-.25 2.688-.813 3.875-1.5-.438 1.438-1.438 2.625-2.688 3.375 1.25-.125 2.438-.438 3.5-.938l-.001.002z"/></svg><svg width="32" height="32" y="1452"><path fill="#444" d="M32.063 16c0-8.5-6.688-15.5-15.125-16H16C7.187 0-.063 7.188-.063 16S7.187 32 16 32h.938c8.438-.5 15.125-7.5 15.125-16zm-3 5.125c-.563-.125-1.938-.5-4.375-.75.188-1.375.313-2.875.313-4.375 0-1.188-.063-2.375-.188-3.5 3.063-.313 4.438-.813 4.5-.813l-.375-1.063c.688 1.625 1.125 3.438 1.125 5.375 0 1.813-.375 3.563-1 5.125zM8.938 16c0-1.125.063-2.188.188-3.25 1.625.125 3.563.188 5.875.25v6.938c-2.25 0-4.125.125-5.75.188-.188-1.313-.313-2.688-.313-4.125zm8-13.875c2.5.688 4.563 4.125 5.5 8.625-1.5.125-3.313.25-5.5.25zM15 2.188v8.813c-2.188-.063-4-.125-5.563-.25 1-4.438 3.125-7.813 5.563-8.563zm0 19.75v7.875c-2.313-.688-4.313-3.688-5.313-7.688 1.5-.125 3.25-.188 5.313-.188zm1.938 7.937v-7.938c2.063 0 3.875.063 5.313.188-1 4.063-3 7.063-5.313 7.75zm0-9.937V13c2.313-.063 4.25-.125 5.875-.25.125 1.063.188 2.125.188 3.25 0 1.438-.125 2.813-.313 4.188-1.625-.125-3.5-.25-5.75-.25zM28.563 9.813c-.25.063-1.563.438-4.063.75-.563-3-1.563-5.563-2.938-7.438 3.063 1.375 5.563 3.75 7 6.688zm-17.375-7C9.563 4.688 8.25 7.376 7.5 10.563c-2.25-.25-3.625-.5-4.125-.625a13.8917 13.8917 0 0 1 7.813-7.125zm-8.563 9c.375.063 1.813.438 4.563.75-.188 1.125-.25 2.25-.25 3.438 0 1.5.125 2.938.375 4.313-2.313.25-3.75.563-4.375.75-.625-1.563-1-3.313-1-5.063 0-1.438.25-2.875.688-4.188zm1.188 11.062c.688-.125 2-.375 3.938-.563.75 2.813 2 5.188 3.438 6.875-3.125-1.188-5.75-3.438-7.375-6.313zm17.75 6c1.188-1.688 2.188-3.938 2.75-6.563 2 .25 3.25.5 3.875.688-1.5 2.563-3.813 4.625-6.625 5.875z"/></svg></svg>